<svg xmlns="http://www.w3.org/2000/svg" width="128" height="128" viewBox="0 0 33.867 33.867" id="facebook">
  <path fill="#00a1ff" d="M18.856 12.938v6.52h3.679c.88 0 1.4-.729 1.587-1.588l.728-3.344c.187-.86-.708-1.588-1.587-1.588zm-8.277 0c-.88 0-1.587.708-1.587 1.588v3.344c0 .88.708 1.587 1.587 1.587h3.13v-6.519z" paint-order="fill markers stroke"></path>
  <path fill="#00a1ff" d="M12.96 5.99v25.247c0 .88.708 1.588 1.588 1.588h3.344c.88 0 1.587-.708 1.587-1.588V10.782c0-2.377.536-3.205 2.85-3.205h.678c.88 0 1.587-.708 1.587-1.587V2.646c0-.88-.708-1.588-1.587-1.588h-5.115c-3.365 0-4.932 2.055-4.932 4.932z" paint-order="fill markers stroke"></path>
</svg>
